<svg width="175" height="170" viewBox="0 0 175 170" fill="none" xmlns="http://www.w3.org/2000/svg">
<path d="M164.062 85C164.067 86.8038 163.591 88.578 162.681 90.1501C161.77 91.7222 160.456 93.0387 158.867 93.9715L60.375 152.502C58.7145 153.49 56.8126 154.029 54.8658 154.064C52.919 154.099 50.9978 153.629 49.3008 152.701C47.6199 151.788 46.2197 150.457 45.2441 148.844C44.2685 147.231 43.7528 145.395 43.75 143.524V26.4762C43.7528 24.6054 44.2685 22.7691 45.2441 21.1562C46.2197 19.5432 47.6199 18.2118 49.3008 17.2988C50.9978 16.3715 52.919 15.901 54.8658 15.936C56.8126 15.971 58.7145 16.5103 60.375 17.4981L158.867 76.0285C160.456 76.9613 161.77 78.2778 162.681 79.8499C163.591 81.422 164.067 83.1962 164.062 85Z" fill="#ff6b00"/>
</svg>
