<svg width="128" height="125" viewBox="0 0 128 125" fill="none" xmlns="http://www.w3.org/2000/svg">
<g clip-path="url(#clip0_86_105)">
<path d="M106.75 0H21.25C9.51395 0 0 9.51395 0 21.25V103.55C0 115.286 9.51395 124.8 21.25 124.8H106.75C118.486 124.8 128 115.286 128 103.55V21.25C128 9.51395 118.486 0 106.75 0Z" fill="#00005B"/>
<path d="M51.4214 74.6665H31.5859L27.5499 87.227C27.4982 87.4423 27.3772 87.6346 27.2054 87.7743C27.0337 87.9141 26.8208 87.9936 26.5994 88.0005L16.4734 88C15.9001 88 15.6998 87.685 15.8724 87.055L33.0459 37.8005L33.2174 37.283L33.2744 37.106L33.3894 36.736C33.4464 36.545 33.5034 36.3425 33.5609 36.123C33.7859 34.9775 33.9009 33.813 33.9044 32.6455C33.8928 32.5638 33.9004 32.4806 33.9265 32.4024C33.9526 32.3242 33.9965 32.2532 34.0548 32.1949C34.1131 32.1366 34.1842 32.0926 34.2624 32.0665C34.3406 32.0404 34.4238 32.0329 34.5054 32.0445H48.1584C48.5584 32.0445 48.7874 32.1876 48.8454 32.474L68.3369 87.1415C68.5086 87.7141 68.3369 88.0003 67.8219 88H56.6589C56.4673 88.0209 56.2746 87.9715 56.1167 87.861C55.9587 87.7504 55.8463 87.5862 55.8004 87.399L51.4214 74.6665ZM34.6774 64.076H48.2444L48.0509 63.4375L47.7404 62.4265L47.2859 60.9785L46.4134 58.245L45.5824 55.618L44.0364 50.7235C43.6093 49.3724 43.1993 48.0159 42.8064 46.6545L42.3674 45.1065L41.8934 43.41L41.4604 41.8365H41.3744C40.9447 43.8975 40.4215 45.9379 39.8064 47.9515L39.2264 49.813L37.8314 54.313L37.1244 56.6055C36.9968 57.0195 36.8693 57.4288 36.7419 57.8335L36.3619 59.0325L35.9839 60.2035L35.6079 61.3455L35.2339 62.459C35.0476 63.009 34.8621 63.548 34.6774 64.076ZM99.9364 69.778H83.021C83.2278 71.4516 83.7836 73.0632 84.6524 74.5085C85.6126 75.9399 86.9706 77.0592 88.5589 77.7285C90.7117 78.6605 93.0402 79.1169 95.3854 79.0665C97.2461 79.0305 99.0998 78.827 100.924 78.4585C102.555 78.2384 104.154 77.8217 105.685 77.2175C105.972 76.9891 106.115 77.1321 106.115 77.6465V85.804C106.129 86.0265 106.085 86.2485 105.986 86.448C105.888 86.604 105.756 86.736 105.6 86.8345C103.901 87.5868 102.113 88.1195 100.28 88.4195C97.7891 88.8871 95.2575 89.1027 92.7234 89.063C88.7854 89.063 85.4659 88.4721 82.7649 87.2905L82.5049 87.174C79.9082 86.0304 77.6149 84.2956 75.8079 82.108C74.12 80.0467 72.8642 77.6668 72.1154 75.11C71.3746 72.5862 70.9989 69.9693 70.9999 67.339C70.9918 64.4669 71.4411 61.6118 72.3309 58.881C73.1878 56.2173 74.5426 53.7406 76.3234 51.5825C78.0805 49.4499 80.2772 47.7217 82.7634 46.516C85.2819 45.286 88.2589 44.8445 91.6934 44.8445C94.5419 44.7732 97.3711 45.3302 99.9799 46.476C102.173 47.4113 104.104 48.8696 105.604 50.7235C107.011 52.5385 108.087 54.5878 108.781 56.777C109.457 58.8866 109.805 61.0877 109.811 63.303C109.811 64.563 109.769 65.708 109.683 66.738L109.606 67.62L109.526 68.457L109.479 68.881L109.468 68.9705C109.446 69.1597 109.355 69.3342 109.212 69.4608C109.07 69.5875 108.886 69.6574 108.695 69.6575L108.46 69.6625L108.166 69.6775L107.938 69.694L107.404 69.7395L106.935 69.786C106.807 69.7993 106.675 69.8118 106.537 69.8235L106.112 69.857L105.657 69.887L105.175 69.912L104.664 69.9335L104.397 69.9425L103.844 69.9575C103.296 69.971 102.735 69.937 102.16 69.895L101.287 69.831C100.838 69.7981 100.387 69.7804 99.9364 69.778ZM83.0214 61.9555H94.7144L95.7104 61.949L96.3874 61.9395L96.8259 61.9295L97.3179 61.9125C97.7583 61.8685 98.1835 61.7276 98.563 61.5V60.985C98.5461 60.3134 98.4305 59.6479 98.2199 59.01C97.7567 57.545 96.8253 56.2726 95.5688 55.3883C94.3124 54.504 92.8003 54.0566 91.2649 54.115C89.8198 54.0277 88.3805 54.3628 87.1225 55.0795C85.8646 55.7961 84.8423 56.8633 84.1804 58.151C83.5919 59.3487 83.2005 60.633 83.0214 61.9555Z" fill="#9999FF"/>
</g>
<defs>
<clipPath id="clip0_86_105">
<rect width="128" height="125" fill="white"/>
</clipPath>
</defs>
</svg>
