<svg width="651" height="589" viewBox="0 0 651 589" fill="none" xmlns="http://www.w3.org/2000/svg">
<g clip-path="url(#clip0_3867_394)">
<path d="M241.961 339.827C235.093 337.195 230.243 332.703 227.411 326.351C224.579 319.999 224.475 313.387 227.097 306.515L288.639 145.95C291.268 139.092 295.763 134.249 302.125 131.421C308.487 128.593 315.093 128.486 321.945 131.101L385.605 155.501L438.193 132.055C441.52 130.572 444.789 130.445 447.999 131.676C451.21 132.906 453.562 135.187 455.055 138.518L478.501 191.106L542.145 215.5C549.003 218.129 553.851 222.626 556.689 228.991C559.527 235.357 559.627 241.967 556.989 248.821L495.452 409.372C492.823 416.23 488.331 421.079 481.976 423.921C475.62 426.763 469.01 426.863 462.146 424.221L241.961 339.827ZM247.675 324.918L467.86 409.312C470.146 410.188 472.614 410.04 475.264 408.867C477.913 407.694 479.675 405.952 480.549 403.643L542.08 243.107C542.96 240.811 542.813 238.338 541.64 235.688C540.467 233.039 538.731 231.279 536.431 230.409L316.231 146.009C313.945 145.133 311.477 145.282 308.828 146.455C306.178 147.628 304.416 149.369 303.542 151.679L242.006 312.23C241.13 314.516 241.278 316.983 242.451 319.633C243.624 322.283 245.361 324.043 247.66 324.913M362.932 318.465L351.515 284.594C350.757 282.673 349.469 281.365 347.65 280.667C345.842 279.974 343.978 280.183 342.058 281.294L316.168 297.361C313.747 298.861 312.679 300.902 312.966 303.486C313.252 306.069 314.598 307.822 317.003 308.744L429.384 351.818C431.8 352.743 433.972 352.339 435.902 350.605C437.832 348.872 438.502 346.677 437.912 344.023L423.299 292.034C422.62 289.938 421.322 288.523 419.404 287.788C417.495 287.056 415.582 287.246 413.663 288.357L362.932 318.465ZM471.155 290.883C475.836 292.678 480.39 292.588 484.817 290.614C489.245 288.64 492.355 285.313 494.149 280.632C495.944 275.95 495.856 271.391 493.886 266.954C491.916 262.517 488.589 259.407 483.903 257.622C479.218 255.838 474.664 255.928 470.241 257.891C465.818 259.855 462.707 263.183 460.909 267.874C459.111 272.565 459.199 277.124 461.172 281.551C463.146 285.978 466.474 289.089 471.155 290.883ZM404.3 162.666L459.805 183.94L442.68 145.556L404.3 162.666Z" fill="#FFF8AE"/>
</g>
<g clip-path="url(#clip1_3867_394)">
<path d="M11.9166 395.95C11.063 395.33 10.34 394.548 9.78922 393.648C9.23839 392.748 8.87051 391.749 8.70663 390.706C8.54276 389.664 8.58612 388.6 8.83422 387.574C9.08232 386.549 9.53029 385.582 10.1525 384.73L50.2202 329.712C50.8402 328.859 51.6226 328.136 52.5225 327.585C53.4223 327.034 54.422 326.666 55.4643 326.502C56.5065 326.338 57.5709 326.382 58.5963 326.63C59.6218 326.878 60.5883 327.326 61.4403 327.948L244.834 461.507C245.709 462.149 246.444 462.961 246.996 463.895L291.15 538.15C291.953 539.5 292.342 541.055 292.269 542.623C292.196 544.192 291.665 545.704 290.74 546.973C289.816 548.243 288.54 549.213 287.069 549.763C285.599 550.314 283.999 550.421 282.469 550.071L198.247 530.834C197.189 530.596 196.19 530.145 195.31 529.51L11.9166 395.95ZM51.5617 404.966L82.1868 362.914L58.474 345.644L27.8489 387.697L51.5617 404.966ZM95.1527 372.356L64.5276 414.408L183.734 501.222L188.377 500.492L187.131 492.568C186.801 490.466 187.319 488.32 188.571 486.6C189.823 484.88 191.707 483.729 193.809 483.398L201.733 482.152L200.487 474.229C200.157 472.127 200.674 469.98 201.927 468.261C203.179 466.541 205.063 465.389 207.165 465.059L215.089 463.813L214.359 459.17L95.1527 372.356ZM201.486 514.15L203.43 515.566L267.791 530.26L234.055 473.514L232.111 472.098C231.784 473.699 230.976 475.161 229.796 476.29C228.615 477.418 227.118 478.16 225.504 478.415L217.58 479.661L218.826 487.585C219.157 489.686 218.639 491.833 217.386 493.552C216.134 495.272 214.25 496.424 212.148 496.754L204.225 498L205.47 505.924C205.723 507.538 205.477 509.19 204.765 510.66C204.053 512.13 202.909 513.348 201.486 514.15Z" fill="#FFF8AE"/>
</g>
<defs>
<clipPath id="clip0_3867_394">
<rect width="383.188" height="383.188" fill="white" transform="translate(293.142 0.369629) rotate(20.971)"/>
</clipPath>
<clipPath id="clip1_3867_394">
<rect width="256.677" height="256.677" fill="white" transform="translate(39.8677 588.8) rotate(-98.9355)"/>
</clipPath>
</defs>
</svg>
