<svg width="256" height="208" viewBox="0 0 256 208" fill="none" xmlns="http://www.w3.org/2000/svg">
<g clip-path="url(#clip0_4002_374)">
<path d="M100.43 115.195C101.361 98.589 109.492 83.96 121.76 73.589C133.79 63.403 149.982 57.177 167.65 57.177C185.3 57.177 201.493 63.403 213.532 73.589C225.79 83.959 233.922 98.589 234.862 115.177C235.792 132.239 228.934 148.089 216.904 159.838C204.637 171.789 187.188 179.288 167.65 179.288C148.112 179.288 130.629 171.789 118.37 159.838C106.331 148.088 99.49 132.238 100.43 115.195Z" fill="white"/>
<path d="M133.168 116.676C133.645 108.156 137.818 100.649 144.112 95.328C150.285 90.102 158.593 86.907 167.659 86.907C176.715 86.907 185.024 90.102 191.201 95.328C197.491 100.649 201.663 108.156 202.145 116.668C202.623 125.422 199.105 133.555 192.931 139.583C186.637 145.715 177.684 149.563 167.659 149.563C157.634 149.563 148.663 145.715 142.373 139.583C136.196 133.555 132.686 125.422 133.168 116.676Z" fill="#265787"/>
<path d="M78.4099 134.18C78.4699 137.52 79.5349 144.014 81.1339 149.084C84.4929 159.817 90.1909 169.747 98.1199 178.497C106.257 187.492 116.276 194.717 127.85 199.846C140.014 205.233 153.194 207.978 166.884 207.956C180.552 207.937 193.733 205.138 205.897 199.71C217.47 194.531 227.48 187.275 235.604 178.276C243.528 169.489 249.217 159.542 252.586 148.809C254.279 143.386 255.349 137.882 255.778 132.359C256.198 126.911 256.02 121.433 255.25 116.023C253.742 105.412 250.07 95.456 244.417 86.38C239.247 78.04 232.583 70.739 224.658 64.593L224.676 64.58L144.706 3.17501C144.633 3.12101 144.574 3.06301 144.497 3.01301C139.251 -1.01499 130.427 -1.00098 124.657 3.03501C118.823 7.11701 118.155 13.868 123.347 18.125L123.325 18.148L156.68 45.272L55.0169 45.38H54.8809C46.4779 45.39 38.4009 50.903 36.8009 57.87C35.1579 64.968 40.8659 70.856 49.6029 70.888L49.5889 70.919L101.119 70.819L9.16691 141.4C9.04991 141.486 8.92291 141.576 8.81491 141.662C0.140915 148.304 -2.66308 159.349 2.79991 166.338C8.34491 173.446 20.1349 173.459 28.8989 166.379L79.0829 125.308C79.0829 125.308 78.3509 130.852 78.4099 134.18ZM207.365 152.746C197.025 163.281 182.548 169.254 166.885 169.286C151.198 169.313 136.722 163.393 126.382 152.877C121.329 147.752 117.618 141.855 115.328 135.574C113.076 129.393 112.21 122.793 112.791 116.24C113.337 109.778 115.261 103.615 118.331 98.038C121.347 92.557 125.501 87.603 130.631 83.413C140.681 75.223 153.478 70.788 166.861 70.77C180.259 70.752 193.046 75.146 203.107 83.31C208.227 87.481 212.377 92.417 215.393 97.89C218.503 103.497 220.398 109.695 220.956 116.082C221.528 122.631 220.659 129.225 218.409 135.402C216.115 141.702 212.417 147.599 207.365 152.746Z" fill="#EA7600"/>
</g>
<defs>
<clipPath id="clip0_4002_374">
<rect width="256" height="208" fill="white"/>
</clipPath>
</defs>
</svg>
