<svg width="911" height="790" viewBox="0 0 911 790" fill="none" xmlns="http://www.w3.org/2000/svg">
<g filter="url(#filter0_d_3460_214)">
<path d="M141.464 717.554C22.4079 753.01 34.565 888.387 55.5256 951.643C163.403 1103.46 816.394 1093.06 1129.41 1068.89C1293.36 978.638 1481.4 728.997 921.896 452.441C222.512 106.746 105.132 428.669 177.796 467.751C250.459 506.833 290.284 673.234 141.464 717.554Z" fill="#639DC7"/>
</g>
<g filter="url(#filter1_d_3460_214)">
<path d="M30.2979 543.867C57.9292 500.038 125.784 539.568 156.257 564.811C203.137 627.061 151.165 654.97 112.253 652.692C73.3403 650.415 -4.24114 598.653 30.2979 543.867Z" fill="#639DC7"/>
</g>
<g filter="url(#filter2_d_3460_214)">
<path d="M790.846 145.869C864.12 105.943 928.484 214.815 951.506 274.242C968.533 398.589 873.537 397.015 820.612 363.251C767.687 329.488 699.254 195.776 790.846 145.869Z" fill="#639DC7"/>
</g>
<g filter="url(#filter3_d_3460_214)">
<path d="M158.212 129.002C166.482 45.9678 292.696 54.0892 354.769 68.5292C467.113 124.482 412.317 202.098 354.612 226.819C296.907 251.541 147.875 232.795 158.212 129.002Z" fill="#639DC7"/>
</g>
<defs>
<filter id="filter0_d_3460_214" x="30" y="293" width="1267" height="790" filterUnits="userSpaceOnUse" color-interpolation-filters="sRGB">
<feFlood flood-opacity="0" result="BackgroundImageFix"/>
<feColorMatrix in="SourceAlpha" type="matrix" values="0 0 0 0 0 0 0 0 0 0 0 0 0 0 0 0 0 0 127 0" result="hardAlpha"/>
<feOffset dx="-12" dy="-1"/>
<feComposite in2="hardAlpha" operator="out"/>
<feColorMatrix type="matrix" values="0 0 0 0 0.678431 0 0 0 0 0.819608 0 0 0 0 0.917647 0 0 0 1 0"/>
<feBlend mode="normal" in2="BackgroundImageFix" result="effect1_dropShadow_3460_214"/>
<feBlend mode="normal" in="SourceGraphic" in2="effect1_dropShadow_3460_214" result="shape"/>
</filter>
<filter id="filter1_d_3460_214" x="21.6578" y="524.196" width="157.186" height="132.625" filterUnits="userSpaceOnUse" color-interpolation-filters="sRGB">
<feFlood flood-opacity="0" result="BackgroundImageFix"/>
<feColorMatrix in="SourceAlpha" type="matrix" values="0 0 0 0 0 0 0 0 0 0 0 0 0 0 0 0 0 0 127 0" result="hardAlpha"/>
<feOffset dx="4" dy="4"/>
<feComposite in2="hardAlpha" operator="out"/>
<feColorMatrix type="matrix" values="0 0 0 0 0.678431 0 0 0 0 0.819608 0 0 0 0 0.917647 0 0 0 1 0"/>
<feBlend mode="normal" in2="BackgroundImageFix" result="effect1_dropShadow_3460_214"/>
<feBlend mode="normal" in="SourceGraphic" in2="effect1_dropShadow_3460_214" result="shape"/>
</filter>
<filter id="filter2_d_3460_214" x="745.949" y="137.277" width="211.572" height="249.579" filterUnits="userSpaceOnUse" color-interpolation-filters="sRGB">
<feFlood flood-opacity="0" result="BackgroundImageFix"/>
<feColorMatrix in="SourceAlpha" type="matrix" values="0 0 0 0 0 0 0 0 0 0 0 0 0 0 0 0 0 0 127 0" result="hardAlpha"/>
<feOffset dx="4" dy="4"/>
<feComposite in2="hardAlpha" operator="out"/>
<feColorMatrix type="matrix" values="0 0 0 0 0.678431 0 0 0 0 0.819608 0 0 0 0 0.917647 0 0 0 1 0"/>
<feBlend mode="normal" in2="BackgroundImageFix" result="effect1_dropShadow_3460_214"/>
<feBlend mode="normal" in="SourceGraphic" in2="effect1_dropShadow_3460_214" result="shape"/>
</filter>
<filter id="filter3_d_3460_214" x="157.701" y="59.3237" width="266.345" height="181.239" filterUnits="userSpaceOnUse" color-interpolation-filters="sRGB">
<feFlood flood-opacity="0" result="BackgroundImageFix"/>
<feColorMatrix in="SourceAlpha" type="matrix" values="0 0 0 0 0 0 0 0 0 0 0 0 0 0 0 0 0 0 127 0" result="hardAlpha"/>
<feOffset dx="4" dy="4"/>
<feComposite in2="hardAlpha" operator="out"/>
<feColorMatrix type="matrix" values="0 0 0 0 0.678431 0 0 0 0 0.819608 0 0 0 0 0.917647 0 0 0 1 0"/>
<feBlend mode="normal" in2="BackgroundImageFix" result="effect1_dropShadow_3460_214"/>
<feBlend mode="normal" in="SourceGraphic" in2="effect1_dropShadow_3460_214" result="shape"/>
</filter>
</defs>
</svg>
