<svg width="30" height="30" viewBox="0 0 30 30" fill="none" xmlns="http://www.w3.org/2000/svg">
<path d="M13.2186 3.49097C13.9608 2.03646 16.0392 2.03646 16.7814 3.49096L19.0341 7.90502C19.3247 8.47446 19.87 8.87066 20.5014 8.97107L25.3955 9.74944C27.0082 10.0059 27.6504 11.9825 26.4965 13.1379L22.9946 16.6443C22.5428 17.0967 22.3345 17.7377 22.4341 18.3692L23.2062 23.2643C23.4606 24.8774 21.7792 26.099 20.3238 25.3585L15.9068 23.1116C15.337 22.8217 14.663 22.8217 14.0932 23.1116L9.67622 25.3585C8.22077 26.099 6.53939 24.8774 6.79381 23.2643L7.5659 18.3692C7.6655 17.7377 7.45721 17.0967 7.00544 16.6443L3.50353 13.1379C2.3496 11.9825 2.99182 10.0059 4.60452 9.74944L9.49863 8.97107C10.13 8.87066 10.6753 8.47446 10.9659 7.90502L13.2186 3.49097Z" fill="#FFF8AE"/>
</svg>
