<svg width="298" height="298" viewBox="0 0 298 298" fill="none" xmlns="http://www.w3.org/2000/svg">
<g clip-path="url(#clip0_3729_184)">
<path d="M236.419 60.7217L104.089 89.4693C92.8914 91.9018 85.7203 103.053 88.1528 114.251L108.055 205.864C109.228 211.263 112.498 215.975 117.145 218.964C121.793 221.952 127.437 222.972 132.836 221.799L265.166 193.052C276.465 190.597 283.557 179.569 281.102 168.271L261.2 76.6574C260.027 71.258 256.757 66.5457 252.11 63.5572C247.462 60.5686 241.818 59.5487 236.419 60.7217ZM244.534 98.0795L185.733 146.35L112.204 126.827L108.511 109.828L181.996 129.147L240.841 81.0801L244.534 98.0795ZM87.6966 210.286C88.0725 212.017 88.7317 213.579 89.3112 215.265L48.0853 224.221C42.4664 225.442 36.911 221.852 35.6947 216.254C34.4785 210.655 38.0437 205.084 43.6626 203.863L84.3796 195.018L87.6966 210.286ZM46.3302 118.006L67.1976 113.473C67.37 115.248 67.4184 116.943 67.7944 118.673L71.1114 133.942L50.7529 138.365C45.1544 139.581 39.5786 135.996 38.3623 130.397C37.1461 124.798 40.7316 119.223 46.3302 118.006ZM37.0285 173.325C35.8123 167.727 39.3978 162.151 44.9964 160.935L75.5341 154.301L79.9568 174.659L49.4191 181.293C43.8206 182.509 38.2448 178.924 37.0285 173.325Z" fill="#FF6B00"/>
</g>
<defs>
<clipPath id="clip0_3729_184">
<rect width="250" height="250" fill="white" transform="translate(0.312988 53.3857) rotate(-12.2566)"/>
</clipPath>
</defs>
</svg>
