<svg width="659" height="602" viewBox="0 0 659 602" fill="none" xmlns="http://www.w3.org/2000/svg">
<path d="M373.125 530.375H357.578V340.704C357.578 338.23 356.595 335.857 354.846 334.108C353.097 332.358 350.724 331.375 348.25 331.375H248.75C246.276 331.375 243.903 332.358 242.154 334.108C240.405 335.857 239.422 338.23 239.422 340.704V406H158.578V266.079C158.578 263.605 157.595 261.232 155.846 259.483C154.097 257.733 151.724 256.75 149.25 256.75H49.75C47.276 256.75 44.9034 257.733 43.154 259.483C41.4047 261.232 40.4219 263.605 40.4219 266.079V530.375H24.875C22.401 530.375 20.0284 531.358 18.279 533.108C16.5297 534.857 15.5469 537.23 15.5469 539.704C15.5469 542.178 16.5297 544.55 18.279 546.3C20.0284 548.049 22.401 549.032 24.875 549.032H373.125C375.599 549.032 377.972 548.049 379.721 546.3C381.47 544.55 382.453 542.178 382.453 539.704C382.453 537.23 381.47 534.857 379.721 533.108C377.972 531.358 375.599 530.375 373.125 530.375ZM258.078 350.032H338.922V530.375H258.078V350.032ZM239.422 424.657V530.375H158.578V424.657H239.422ZM59.0781 275.407H139.922V530.375H59.0781V275.407ZM108.828 315.829V340.704C108.828 343.178 107.845 345.55 106.096 347.3C104.347 349.049 101.974 350.032 99.5 350.032C97.026 350.032 94.6534 349.049 92.904 347.3C91.1547 345.55 90.1719 343.178 90.1719 340.704V315.829C90.1719 313.355 91.1547 310.982 92.904 309.233C94.6534 307.483 97.026 306.5 99.5 306.5C101.974 306.5 104.347 307.483 106.096 309.233C107.845 310.982 108.828 313.355 108.828 315.829ZM108.828 390.454V415.329C108.828 417.803 107.845 420.175 106.096 421.925C104.347 423.674 101.974 424.657 99.5 424.657C97.026 424.657 94.6534 423.674 92.904 421.925C91.1547 420.175 90.1719 417.803 90.1719 415.329V390.454C90.1719 387.98 91.1547 385.607 92.904 383.858C94.6534 382.108 97.026 381.125 99.5 381.125C101.974 381.125 104.347 382.108 106.096 383.858C107.845 385.607 108.828 387.98 108.828 390.454ZM108.828 465.079V489.954C108.828 492.428 107.845 494.8 106.096 496.55C104.347 498.299 101.974 499.282 99.5 499.282C97.026 499.282 94.6534 498.299 92.904 496.55C91.1547 494.8 90.1719 492.428 90.1719 489.954V465.079C90.1719 462.605 91.1547 460.232 92.904 458.483C94.6534 456.733 97.026 455.75 99.5 455.75C101.974 455.75 104.347 456.733 106.096 458.483C107.845 460.232 108.828 462.605 108.828 465.079ZM189.672 489.954V465.079C189.672 462.605 190.655 460.232 192.404 458.483C194.153 456.733 196.526 455.75 199 455.75C201.474 455.75 203.847 456.733 205.596 458.483C207.345 460.232 208.328 462.605 208.328 465.079V489.954C208.328 492.428 207.345 494.8 205.596 496.55C203.847 498.299 201.474 499.282 199 499.282C196.526 499.282 194.153 498.299 192.404 496.55C190.655 494.8 189.672 492.428 189.672 489.954ZM289.172 489.954V465.079C289.172 462.605 290.155 460.232 291.904 458.483C293.653 456.733 296.026 455.75 298.5 455.75C300.974 455.75 303.347 456.733 305.096 458.483C306.845 460.232 307.828 462.605 307.828 465.079V489.954C307.828 492.428 306.845 494.8 305.096 496.55C303.347 498.299 300.974 499.282 298.5 499.282C296.026 499.282 293.653 498.299 291.904 496.55C290.155 494.8 289.172 492.428 289.172 489.954ZM289.172 415.329V390.454C289.172 387.98 290.155 385.607 291.904 383.858C293.653 382.108 296.026 381.125 298.5 381.125C300.974 381.125 303.347 382.108 305.096 383.858C306.845 385.607 307.828 387.98 307.828 390.454V415.329C307.828 417.803 306.845 420.175 305.096 421.925C303.347 423.674 300.974 424.657 298.5 424.657C296.026 424.657 293.653 423.674 291.904 421.925C290.155 420.175 289.172 417.803 289.172 415.329Z" fill="#FFF8AE"/>
<g clip-path="url(#clip0_3867_396)">
<path d="M472.114 137.465L424.134 194.181L441.886 266.318L489.85 209.598L472.114 137.465ZM449.887 190.326C453.106 188.33 456.528 187.769 460.152 188.642C463.763 189.525 466.564 191.572 468.556 194.785C470.551 198.004 471.116 201.424 470.249 205.044C469.367 208.654 467.319 211.455 464.107 213.447C460.888 215.443 457.468 216.007 453.848 215.14C450.231 214.262 447.426 212.217 445.434 209.005C443.438 205.785 442.877 202.363 443.751 198.739C444.629 195.122 446.674 192.317 449.887 190.326ZM399.271 108.845C412.142 100.866 425.753 95.8053 440.106 93.664C454.462 91.5296 468.428 92.0518 482.004 95.2306C495.579 98.4094 508.318 104.14 520.219 112.422C532.12 120.705 542.063 131.285 550.046 144.162C558.03 157.04 563.087 170.653 565.217 185.003C567.358 199.356 566.847 213.315 563.682 226.882C560.517 240.449 554.783 253.19 546.479 265.104C538.176 277.018 527.593 286.962 514.729 294.938C501.865 302.913 488.252 307.97 473.888 310.108C459.536 312.25 445.574 311.734 432.003 308.562C418.431 305.391 405.691 299.657 393.781 291.36C381.871 283.064 371.929 272.484 363.954 259.62C355.979 246.757 350.918 233.145 348.773 218.786C346.627 204.427 347.149 190.461 350.339 176.888C353.529 163.315 359.26 150.576 367.531 138.672C375.802 126.769 386.382 116.826 399.271 108.845ZM405.713 119.166C382.66 133.459 368.085 153.604 361.986 179.602C355.887 205.6 359.983 230.126 374.275 253.179C388.567 276.231 408.712 290.807 434.711 296.906C460.709 303.005 485.235 298.908 508.287 284.616C531.34 270.324 545.916 250.179 552.015 224.181C558.114 198.182 554.017 173.657 539.725 150.604C525.433 127.552 505.288 112.976 479.289 106.877C453.291 100.778 428.766 104.874 405.713 119.166Z" fill="#FFF8AE"/>
</g>
<defs>
<clipPath id="clip0_3867_396">
<rect width="292" height="292" fill="white" transform="translate(658.018 249.048) rotate(148.202)"/>
</clipPath>
</defs>
</svg>
