<svg width="76" height="75" viewBox="0 0 76 75" fill="none" xmlns="http://www.w3.org/2000/svg">
<g clip-path="url(#clip0_3587_308)">
<path d="M26.9277 75.5859C33.9004 75.5859 39.5254 69.9609 39.5254 62.9883V50.3906H26.9277C19.9551 50.3906 14.3301 56.0156 14.3301 62.9883C14.3301 69.9609 19.9551 75.5859 26.9277 75.5859Z" fill="#0ACF83"/>
<path d="M14.3301 37.793C14.3301 30.8203 19.9551 25.1953 26.9277 25.1953H39.5254V50.3906H26.9277C19.9551 50.3906 14.3301 44.7656 14.3301 37.793Z" fill="#A259FF"/>
<path d="M14.3301 12.5977C14.3301 5.625 19.9551 0 26.9277 0H39.5254V25.1953H26.9277C19.9551 25.1953 14.3301 19.5703 14.3301 12.5977Z" fill="#F24E1E"/>
<path d="M39.5254 0H52.123C59.0957 0 64.7207 5.625 64.7207 12.5977C64.7207 19.5703 59.0957 25.1953 52.123 25.1953H39.5254V0Z" fill="#FF7262"/>
<path d="M64.7207 37.793C64.7207 44.7656 59.0957 50.3906 52.123 50.3906C45.1504 50.3906 39.5254 44.7656 39.5254 37.793C39.5254 30.8203 45.1504 25.1953 52.123 25.1953C59.0957 25.1953 64.7207 30.8203 64.7207 37.793Z" fill="#1ABCFE"/>
</g>
<defs>
<clipPath id="clip0_3587_308">
<rect width="75" height="75" fill="white" transform="translate(0.267578)"/>
</clipPath>
</defs>
</svg>
