<svg width="46" height="40" viewBox="0 0 46 40" fill="none" xmlns="http://www.w3.org/2000/svg">
<path d="M32.7656 0.03125C28.8418 0.03125 25.3594 1.58008 23 4.24219C20.6406 1.58008 17.1582 0.03125 13.2344 0.03125C9.81684 0.035385 6.54046 1.39483 4.12389 3.81139C1.70733 6.22796 0.347885 9.50434 0.34375 12.9219C0.34375 27.0508 21.0098 38.3398 21.8887 38.8145C22.2302 38.9984 22.6121 39.0947 23 39.0947C23.3879 39.0947 23.7698 38.9984 24.1113 38.8145C24.9902 38.3398 45.6562 27.0508 45.6562 12.9219C45.6521 9.50434 44.2927 6.22796 41.8761 3.81139C39.4595 1.39483 36.1832 0.035385 32.7656 0.03125ZM31.6934 27.8359C28.9732 30.1442 26.0653 32.2217 23 34.0469C19.9347 32.2217 17.0268 30.1442 14.3066 27.8359C10.0742 24.2051 5.03125 18.668 5.03125 12.9219C5.03125 10.7463 5.8955 8.65977 7.43389 7.12139C8.97227 5.58301 11.0588 4.71875 13.2344 4.71875C16.7109 4.71875 19.6211 6.55469 20.8301 9.51172C21.006 9.94279 21.3064 10.3117 21.6929 10.5713C22.0793 10.831 22.5344 10.9697 23 10.9697C23.4656 10.9697 23.9207 10.831 24.3071 10.5713C24.6936 10.3117 24.994 9.94279 25.1699 9.51172C26.3789 6.55469 29.2891 4.71875 32.7656 4.71875C34.9412 4.71875 37.0277 5.58301 38.5661 7.12139C40.1045 8.65977 40.9688 10.7463 40.9688 12.9219C40.9688 18.668 35.9258 24.2051 31.6934 27.8359Z" fill="#F24E1E"/>
</svg>
