<svg width="115" height="99" viewBox="0 0 115 99" fill="none" xmlns="http://www.w3.org/2000/svg">
<path d="M4.39846 80.0098C3.24245 80.0098 2.24152 79.6016 1.39566 78.7853C0.578002 77.9408 0.169171 76.9414 0.169171 75.7872L0.0422929 4.68706C0.0140976 4.4337 0 4.18035 0 3.927C0 3.53289 0.0845857 3.15286 0.253757 2.7869C0.451124 2.42094 0.676686 2.04091 0.930443 1.6468C1.60713 0.548935 2.57986 0 3.84865 0C5.87871 0 7.27437 0.788214 8.03564 2.36464L30.6623 39.2277L51.5973 2.32242C52.4431 0.914891 53.5851 0.211129 55.023 0.211129C56.2354 0.211129 57.2927 0.605236 58.195 1.39345C59.0972 2.18166 59.5483 3.19508 59.5483 4.4337V89.0667C59.5483 89.0667 90.4667 89.0667 91.6372 89.0667C92.8077 89.0667 93.9128 89.2884 94.856 90.2353C95.7239 91.1066 96.0265 91.4496 96.0265 93.1569C96.0265 94.8641 95.3169 95.7863 94.856 96.3706C94.3951 96.9549 92.8077 97.5392 91.6372 97.5392C90.4667 97.5392 59.5483 97.5392 59.5483 97.5392C59.1563 97.5392 59.1563 97.5392 58.2784 97.5392C57.1079 97.5392 56.4751 97.5392 55.3191 97.5392C54.1631 97.5392 53.1621 97.131 52.3163 96.3147C51.4986 95.4702 51.0898 94.4708 51.0898 93.3166V19.5083L34.4687 49.6575C34.1585 50.1642 33.6792 50.6568 33.0307 51.1354C32.3822 51.5858 31.6774 51.811 30.9161 51.811C29.2808 51.811 28.0261 51.1354 27.152 49.7842L8.50086 19.3394L8.62774 75.745V75.7872C8.62774 76.9414 8.20481 77.9408 7.35896 78.7853C6.5413 79.6016 5.55446 80.0098 4.39846 80.0098Z" fill="#EDEEF5"/>
<path d="M115 93.1569C115 96.3839 112.38 99 109.148 99C105.915 99 103.295 96.3839 103.295 93.1569C103.295 89.9298 105.915 87.3137 109.148 87.3137C112.38 87.3137 115 89.9298 115 93.1569Z" fill="#EDEEF5"/>
</svg>
