<svg width="622" height="578" viewBox="0 0 622 578" fill="none" xmlns="http://www.w3.org/2000/svg">
<g clip-path="url(#clip0_3863_318)">
<path d="M254.39 215.49C189.371 198.27 122.468 237.883 101.076 301.65L71.199 390.711C63.7856 412.81 75.6401 436.633 97.7389 444.046L111.051 448.512C125.695 453.425 141.696 445.463 146.608 430.819L164.472 377.569C169.385 362.925 161.423 346.924 146.779 342.012L120.154 333.08L127.79 310.316C144.939 259.195 199.261 227.951 250.739 243.591C263.335 247.4 275.039 253.7 285.155 262.117C295.271 270.534 303.594 280.896 309.63 292.59C315.666 304.284 319.292 317.071 320.294 330.192C321.296 343.314 319.652 356.503 315.461 368.978L306.529 395.603L279.904 386.671C265.261 381.759 249.26 389.72 244.347 404.364L226.484 457.615C221.571 472.258 229.533 488.259 244.177 493.171L257.49 497.637C279.588 505.051 303.412 493.196 310.825 471.097L342.086 377.91C365.175 309.084 325.666 234.365 254.39 215.49Z" fill="#FFF8AE"/>
</g>
<path d="M582 74C580.746 74.019 579.515 74.3401 578.412 74.936L441.6 113C439.531 113 437.547 113.822 436.085 115.285C434.622 116.747 433.8 118.731 433.8 120.8V218.768C429.075 215.964 423.694 214.457 418.2 214.4C412.029 214.4 405.997 216.23 400.866 219.658C395.735 223.086 391.736 227.959 389.375 233.66C387.014 239.361 386.396 245.635 387.6 251.687C388.803 257.739 391.775 263.298 396.138 267.662C400.502 272.025 406.061 274.997 412.113 276.2C418.165 277.404 424.439 276.786 430.14 274.425C435.841 272.064 440.714 268.065 444.142 262.934C447.57 257.803 449.4 251.771 449.4 245.6V173.216L574.2 138.584V195.368C569.475 192.564 564.094 191.057 558.6 191C552.429 191 546.397 192.83 541.266 196.258C536.135 199.686 532.136 204.559 529.775 210.26C527.414 215.961 526.796 222.235 528 228.287C529.203 234.339 532.175 239.898 536.538 244.262C540.902 248.625 546.461 251.597 552.513 252.8C558.565 254.004 564.839 253.386 570.54 251.025C576.241 248.664 581.114 244.665 584.542 239.534C587.97 234.403 589.8 228.371 589.8 222.2V81.8C589.8 79.7313 588.978 77.7474 587.515 76.2846C586.053 74.8218 584.069 74 582 74ZM574.2 122.984L449.4 157.616V126.416L574.2 91.784V122.984Z" fill="#FFF8AE"/>
<path d="M253.5 156.323C272.067 156.323 287.167 141.223 287.167 122.656V37.2691L362.917 64.8085V127.344C357.824 124.309 352.012 122.69 346.083 122.656C327.516 122.656 312.417 137.756 312.417 156.323C312.417 174.89 327.516 189.99 346.083 189.99C364.65 189.99 379.75 174.89 379.75 156.323V58.9168C379.749 57.1905 379.217 55.5063 378.226 54.0926C377.235 52.6789 375.834 51.6039 374.212 51.0136L281.628 17.3469C280.357 16.8843 278.994 16.7349 277.653 16.9112C276.312 17.0875 275.033 17.5844 273.925 18.3599C272.816 19.1353 271.911 20.1664 271.286 21.3658C270.661 22.5652 270.334 23.8976 270.333 25.2501V93.6776C265.241 90.6419 259.429 89.0233 253.5 88.9895C234.933 88.9895 219.833 104.089 219.833 122.656C219.833 141.223 234.933 156.323 253.5 156.323Z" fill="#FFF8AE"/>
<defs>
<clipPath id="clip0_3863_318">
<rect width="337" height="337" fill="white" transform="translate(107.182 151) rotate(18.5449)"/>
</clipPath>
</defs>
</svg>
