<svg width="76" height="75" viewBox="0 0 76 75" fill="none" xmlns="http://www.w3.org/2000/svg">
<g clip-path="url(#clip0_3587_304)">
<path d="M57.6895 0H17.8457C8.13757 0 0.267578 7.86999 0.267578 17.5781V57.4219C0.267578 67.13 8.13757 75 17.8457 75H57.6895C67.3976 75 75.2676 67.13 75.2676 57.4219V17.5781C75.2676 7.86999 67.3976 0 57.6895 0Z" fill="#00005B"/>
<path d="M16.0879 53.5195V21.3319C16.0879 21.1134 16.1816 20.9883 16.4005 20.9883C16.9316 20.9883 17.4317 20.9883 18.1504 20.9569C18.9004 20.9259 19.6817 20.9259 20.5255 20.8945C21.3692 20.8632 22.2754 20.8632 23.2442 20.8321C24.2128 20.8008 25.1503 20.8008 26.0878 20.8008C28.6504 20.8008 30.7753 21.1134 32.5255 21.7696C34.0941 22.3024 35.5245 23.1777 36.7129 24.3319C37.7196 25.3424 38.4976 26.5573 38.9942 27.8944C39.463 29.2069 39.7129 30.5508 39.7129 31.957C39.7129 34.6445 39.0879 36.8633 37.8379 38.6133C36.5878 40.3632 34.8379 41.6757 32.8067 42.4257C30.6815 43.207 28.3378 43.4883 25.7755 43.4883C25.0255 43.4883 24.5254 43.4883 24.2128 43.4569C23.9005 43.4259 23.4628 43.4259 22.8692 43.4259V53.4571C22.9003 53.6757 22.7441 53.8632 22.5253 53.8945H16.4629C16.213 53.8945 16.0879 53.7694 16.0879 53.4882V53.5195ZM22.9003 27.0507V37.5507C23.338 37.582 23.744 37.6134 24.119 37.6134H25.7755C26.9942 37.6134 28.213 37.4259 29.369 37.0509C30.3692 36.7696 31.244 36.1758 31.9316 35.3944C32.5879 34.6134 32.9005 33.5508 32.9005 32.1759C32.9298 31.1993 32.6805 30.2345 32.1815 29.3944C31.6504 28.582 30.9004 27.9571 29.9942 27.6132C28.8379 27.1444 27.5878 26.9569 26.3066 26.9883C25.4942 26.9883 24.7753 26.9883 24.1817 27.0196C23.5565 26.9883 23.1191 27.0196 22.9003 27.0507ZM44.2129 28.8946H49.6817C49.9943 28.8946 50.2442 29.1132 50.338 29.3944C50.4317 29.6446 50.4941 29.8945 50.5255 30.1758C50.5879 30.4884 50.6506 30.832 50.6816 31.1446C50.713 31.4883 50.7443 31.8633 50.7443 32.2696C51.6826 31.1742 52.8164 30.2628 54.088 29.5819C55.5256 28.7695 57.1817 28.3632 58.8379 28.3632C59.0567 28.3321 59.2442 28.4883 59.2756 28.7071V34.9257C59.2756 35.1759 59.1191 35.2696 58.7755 35.2696C57.6505 35.2383 56.4941 35.332 55.4005 35.5819C54.4942 35.7694 53.6192 36.0507 52.7755 36.4257C52.1816 36.7069 51.6191 37.0819 51.1817 37.582V53.5195C51.1817 53.8321 51.0566 53.9569 50.7754 53.9569H44.6192C44.3693 53.9883 44.1505 53.8321 44.1191 53.5819V36.1444C44.1191 35.3944 44.1191 34.6134 44.0881 33.8007C44.0567 32.9883 44.0567 32.1759 44.0254 31.3632C44.0254 30.6445 43.963 29.9569 43.9006 29.2383C43.8692 29.0821 43.963 28.9257 44.1191 28.8946C44.1191 28.8633 44.1818 28.8633 44.2129 28.8946Z" fill="#9999FF"/>
</g>
<defs>
<clipPath id="clip0_3587_304">
<rect width="75" height="75" fill="white" transform="translate(0.267578)"/>
</clipPath>
</defs>
</svg>
