<svg width="1039" height="1505" viewBox="0 0 1039 1505" fill="none" xmlns="http://www.w3.org/2000/svg">
<g clip-path="url(#clip0_3474_391)">
<path d="M663.1 714.789C824.555 673.964 988.536 771.753 1029.36 933.209C1070.19 1094.66 972.397 1258.64 810.942 1299.47L35.0507 1495.66C-126.404 1536.49 -290.385 1438.7 -331.211 1277.24C-372.036 1115.79 -274.246 951.806 -112.791 910.98L663.1 714.789Z" fill="#1E6BA3"/>
<path d="M166.95 381.997C306.238 258.214 519.499 270.783 643.282 410.071C767.066 549.359 754.497 762.62 615.209 886.403L80.33 1361.74C-58.9578 1485.53 -272.219 1472.96 -396.002 1333.67C-519.786 1194.38 -507.217 981.122 -367.929 857.339L166.95 381.997Z" fill="#639DC7"/>
<path d="M-179.218 156.705C-124.42 26.4557 25.59 -34.7096 155.839 20.0882C286.088 74.886 347.254 224.896 292.456 355.145L-49.2378 1167.32C-104.036 1297.57 -254.046 1358.73 -384.295 1303.94C-514.544 1249.14 -575.71 1099.13 -520.912 968.879L-179.218 156.705Z" fill="#ADD1EA"/>
</g>
<defs>
<clipPath id="clip0_3474_391">
<rect width="1039" height="1505" fill="white"/>
</clipPath>
</defs>
</svg>
