<svg width="1039" height="1080" viewBox="0 0 1039 1080" fill="none" xmlns="http://www.w3.org/2000/svg">
<path d="M663.231 575.921C824.687 535.096 988.668 632.885 1029.49 794.341C1070.32 955.796 972.529 1119.78 811.073 1160.6L35.1826 1356.79C-126.273 1397.62 -290.254 1299.83 -331.079 1138.37C-371.904 976.919 -274.115 812.938 -112.659 772.112L663.231 575.921Z" fill="#1E6BA3"/>
<path d="M167.082 243.129C306.37 119.346 519.631 131.915 643.414 271.203C767.198 410.491 754.629 623.752 615.341 747.535L80.4618 1222.88C-58.826 1346.66 -272.087 1334.09 -395.87 1194.8C-519.654 1055.52 -507.085 842.254 -367.797 718.47L167.082 243.129Z" fill="#639DC7"/>
<path d="M-179.086 17.8369C-124.288 -112.412 25.7218 -173.578 155.971 -118.78C286.22 -63.982 347.386 86.0282 292.588 216.277L-49.1059 1028.45C-103.904 1158.7 -253.914 1219.87 -384.163 1165.07C-514.412 1110.27 -575.578 960.26 -520.78 830.011L-179.086 17.8369Z" fill="#ADD1EA"/>
</svg>
