<svg xmlns="http://www.w3.org/2000/svg" version="1.1" xmlns:xlink="http://www.w3.org/1999/xlink" xmlns:svgjs="http://svgjs.dev/svgjs" width="175" height="175"><svg width="175" height="175" viewBox="0 0 175 175" fill="none" xmlns="http://www.w3.org/2000/svg">
<circle cx="87.5" cy="87.5" r="87.5" fill="#2A2F51"></circle>
<path d="M34.3985 118.01C33.2425 118.01 32.2415 117.602 31.3957 116.785C30.578 115.941 30.1692 114.941 30.1692 113.787L30.0423 42.6871C30.0141 42.4337 30 42.1803 30 41.927C30 41.5329 30.0846 41.1529 30.2538 40.7869C30.4511 40.4209 30.6767 40.0409 30.9304 39.6468C31.6071 38.5489 32.5799 38 33.8487 38C35.8787 38 37.2744 38.7882 38.0356 40.3646L60.6623 77.2277L81.5973 40.3224C82.4431 38.9149 83.5851 38.2111 85.023 38.2111C86.2354 38.2111 87.2927 38.6052 88.195 39.3934C89.0972 40.1817 89.5483 41.1951 89.5483 42.4337V127.067C89.5483 127.067 120.467 127.067 121.637 127.067C122.808 127.067 123.913 127.288 124.856 128.235C125.724 129.107 126.027 129.45 126.027 131.157C126.027 132.864 125.317 133.786 124.856 134.371C124.395 134.955 122.808 135.539 121.637 135.539C120.467 135.539 89.5483 135.539 89.5483 135.539C89.1563 135.539 89.1563 135.539 88.2784 135.539C87.1079 135.539 86.4751 135.539 85.3191 135.539C84.1631 135.539 83.1621 135.131 82.3163 134.315C81.4986 133.47 81.0898 132.471 81.0898 131.317V57.5083L64.4687 87.6575C64.1585 88.1642 63.6792 88.6568 63.0307 89.1354C62.3822 89.5858 61.6774 89.811 60.9161 89.811C59.2808 89.811 58.0261 89.1354 57.152 87.7842L38.5009 57.3394L38.6277 113.745V113.787C38.6277 114.941 38.2048 115.941 37.359 116.785C36.5413 117.602 35.5545 118.01 34.3985 118.01Z" fill="#EDEEF5"></path>
<path d="M145 131.157C145 134.384 142.38 137 139.148 137C135.915 137 133.295 134.384 133.295 131.157C133.295 127.93 135.915 125.314 139.148 125.314C142.38 125.314 145 127.93 145 131.157Z" fill="#EDEEF5"></path>
</svg><style>@media (prefers-color-scheme: light) { :root { filter: none; } }
@media (prefers-color-scheme: dark) { :root { filter: none; } }
</style></svg>